<svg width="28" height="28" viewBox="0 0 28 28" fill="none" xmlns="http://www.w3.org/2000/svg">
<path d="M9.91665 22.1667H9.33331C4.66665 22.1667 2.33331 21 2.33331 15.1667V9.33337C2.33331 4.66671 4.66665 2.33337 9.33331 2.33337H18.6666C23.3333 2.33337 25.6666 4.66671 25.6666 9.33337V15.1667C25.6666 19.8334 23.3333 22.1667 18.6666 22.1667H18.0833C17.7216 22.1667 17.3716 22.3417 17.15 22.6334L15.4 24.9667C14.63 25.9934 13.37 25.9934 12.6 24.9667L10.85 22.6334C10.6633 22.3767 10.2316 22.1667 9.91665 22.1667Z" stroke="white" stroke-width="1.5" stroke-miterlimit="10" stroke-linecap="round" stroke-linejoin="round"/>
<path d="M8.16669 9.33337H19.8334M8.16669 15.1667H15.1667" stroke="white" stroke-width="1.5" stroke-linecap="round" stroke-linejoin="round"/>
</svg>
