<svg width="28" height="28" viewBox="0 0 28 28" fill="none" xmlns="http://www.w3.org/2000/svg">
<path d="M24.7217 9.37995L21.0117 5.66995C19.6117 4.26995 17.6867 4.33995 16.7417 5.84495L14.6767 9.11162L21.2917 15.7266L24.5583 13.6616C25.97 12.7633 26.0517 10.6983 24.7217 9.37995Z" stroke="white" stroke-width="1.5" stroke-linecap="round" stroke-linejoin="round"/>
<path d="M21.2917 15.7149L21.5717 20.5216C21.84 23.2049 20.9067 24.1383 18.3633 24.4416L8.19 25.6433C6.04333 25.8883 4.50333 24.3483 4.76 22.2133L5.90333 12.5533M14.6767 9.11161L12.635 8.98328M6.16 24.2433L9.87 20.5216" stroke="white" stroke-width="1.5" stroke-linecap="round" stroke-linejoin="round"/>
<path d="M12.8333 7.58328C12.8333 8.06161 12.7633 8.53994 12.635 8.98328C12.3642 9.96989 11.8081 10.8546 11.0367 11.5266C10.115 12.3433 8.91333 12.8333 7.58333 12.8333C6.98833 12.8333 6.42833 12.7399 5.90333 12.5533C4.72637 12.1579 3.72928 11.3553 3.09166 10.2899C2.59756 9.47342 2.33539 8.53766 2.33333 7.58328C2.33333 5.92661 3.09166 4.44495 4.30499 3.48828C5.07611 2.86827 6.00694 2.47911 6.98989 2.3658C7.97285 2.25248 8.96781 2.41963 9.85977 2.84792C10.7517 3.27621 11.5043 3.94816 12.0305 4.78612C12.5567 5.62407 12.835 6.59381 12.8333 7.58328Z" stroke="white" stroke-width="1.5" stroke-miterlimit="10" stroke-linecap="round" stroke-linejoin="round"/>
<path d="M7.60666 9.54329V5.62329M9.52 7.58329H5.6" stroke="white" stroke-width="1.5" stroke-miterlimit="10" stroke-linecap="round" stroke-linejoin="round"/>
</svg>
