<svg width="28" height="28" viewBox="0 0 28 28" fill="none" xmlns="http://www.w3.org/2000/svg">
<path d="M14.0234 3.39502C10.1618 3.39502 7.02344 6.53335 7.02344 10.395V13.7667C7.02344 14.4784 6.7201 15.5634 6.35844 16.17L5.01677 18.3984C4.18844 19.775 4.7601 21.3034 6.27677 21.8167C11.3051 23.4967 16.7301 23.4967 21.7584 21.8167C23.1701 21.35 23.7884 19.6817 23.0184 18.3984L21.6768 16.17C21.3268 15.5634 21.0234 14.4784 21.0234 13.7667V10.395C21.0234 6.54502 17.8734 3.39502 14.0234 3.39502Z" stroke="white" stroke-width="1.5" stroke-miterlimit="10" stroke-linecap="round"/>
<path d="M16.1817 3.73343C14.7708 3.33162 13.2758 3.33162 11.865 3.73343C12.2033 2.87009 13.0433 2.26343 14.0233 2.26343C15.0033 2.26343 15.8433 2.87009 16.1817 3.73343Z" stroke="white" stroke-width="1.5" stroke-miterlimit="10" stroke-linecap="round" stroke-linejoin="round"/>
<path d="M17.5234 22.2366C17.5234 24.1616 15.9484 25.7366 14.0234 25.7366C13.0668 25.7366 12.1801 25.3399 11.5501 24.7099C10.8946 24.0534 10.5255 23.1643 10.5234 22.2366" stroke="white" stroke-width="1.5" stroke-miterlimit="10"/>
</svg>
