<svg width="28" height="28" viewBox="0 0 28 28" fill="none" xmlns="http://www.w3.org/2000/svg">
<path d="M10.5 25.6667H24.5M8.30667 10.6517L17.3483 19.6934M4.10667 20.6034L10.6983 14M7.39667 23.905L14 17.3017M3.395 20.51L7.49 24.605C8.14625 25.2605 9.03583 25.6286 9.96333 25.6286C10.8908 25.6286 11.7804 25.2605 12.4367 24.605L24.605 12.4367C25.2604 11.7805 25.6286 10.8909 25.6286 9.96338C25.6286 9.03588 25.2604 8.1463 24.605 7.49005L20.51 3.39505C19.8537 2.73961 18.9642 2.37146 18.0367 2.37146C17.1092 2.37146 16.2196 2.73961 15.5633 3.39505L3.395 15.5634C2.73957 16.2196 2.37141 17.1092 2.37141 18.0367C2.37141 18.9642 2.73957 19.8538 3.395 20.51Z" stroke="white" stroke-width="1.5" stroke-linecap="round" stroke-linejoin="round"/>
</svg>
