<svg width="28" height="28" viewBox="0 0 28 28" fill="none" xmlns="http://www.w3.org/2000/svg">
<g clip-path="url(#clip0_225_27)">
<path d="M12.0693 24.4903C11.8028 24.4903 11.5866 24.2742 11.5866 24.0076V16.4142H4.41871C4.15217 16.4142 3.93604 16.198 3.93604 15.9315C3.93604 15.6649 4.15217 15.4487 4.41871 15.4487H12.552V24.0076C12.552 24.1356 12.5012 24.2584 12.4107 24.349C12.3201 24.4395 12.1973 24.4903 12.0693 24.4903Z" fill="white" stroke="white" stroke-width="1.2"/>
<path d="M23.4474 12.5525H15.4492V4.97345C15.4492 4.70687 15.6653 4.49072 15.9319 4.49072C16.1984 4.49072 16.4146 4.70687 16.4146 4.97345V11.5871H23.4474C23.7139 11.5871 23.93 11.8032 23.93 12.0698C23.93 12.3364 23.7139 12.5525 23.4474 12.5525Z" fill="white" stroke="white" stroke-width="1.2"/>
<path d="M16.3458 12.1377C16.2187 12.1357 16.0972 12.0838 16.008 11.9929C15.8209 11.8045 15.8209 11.5004 16.008 11.3121L27.1725 0.14207C27.3617 -0.0473568 27.6685 -0.0473568 27.8577 0.14207C28.0471 0.331282 28.0471 0.638158 27.8577 0.827375L16.6888 11.993C16.5985 12.085 16.4749 12.137 16.3458 12.1377Z" fill="white" stroke="white" stroke-width="1.2"/>
<path d="M0.485476 27.9997C0.357266 28.0004 0.233793 27.9502 0.142862 27.8596C0.0515004 27.7691 0 27.6457 0 27.517C0 27.3883 0.0514999 27.2649 0.142862 27.1744L11.5148 15.8013C11.704 15.6121 12.0108 15.6121 12.2003 15.8013C12.3895 15.9908 12.3895 16.2976 12.2003 16.4869L0.828323 27.8599C0.737391 27.9504 0.613919 28.0006 0.485708 28L0.485476 27.9997Z" fill="white" stroke="white" stroke-width="1.2"/>
</g>
<defs>
<clipPath id="clip0_225_27">
<rect width="28" height="28" fill="white"/>
</clipPath>
</defs>
</svg>
