<svg width="28" height="28" viewBox="0 0 28 28" fill="none" xmlns="http://www.w3.org/2000/svg">
<path d="M18.8417 14.9683L16.8233 15.645C16.2633 15.8317 15.8317 16.2633 15.645 16.8233L14.9683 18.8417C14.3967 20.58 11.9467 20.545 11.41 18.8067L9.135 11.48C8.69166 10.0217 10.0333 8.67999 11.4683 9.12332L18.8067 11.3983C20.545 11.9467 20.5683 14.3967 18.8417 14.9683Z" stroke="white" stroke-width="1.5" stroke-linecap="round" stroke-linejoin="round"/>
<path d="M14 25.6667C20.4435 25.6667 25.6667 20.4435 25.6667 14C25.6667 7.55654 20.4435 2.33337 14 2.33337C7.5565 2.33337 2.33333 7.55654 2.33333 14C2.33333 20.4435 7.5565 25.6667 14 25.6667Z" stroke="white" stroke-width="1.5" stroke-linecap="round" stroke-linejoin="round"/>
</svg>
