<svg width="28" height="28" viewBox="0 0 28 28" fill="none" xmlns="http://www.w3.org/2000/svg">
<path d="M18.6667 10.4883V23.7417C18.6667 25.4333 17.4534 26.145 15.9717 25.3283L11.3867 22.7733C10.8967 22.505 10.1034 22.505 9.61337 22.7733L5.02837 25.3283C3.54671 26.145 2.33337 25.4333 2.33337 23.7417V10.4883C2.33337 8.49332 3.96671 6.85999 5.96171 6.85999H15.0384C17.0334 6.85999 18.6667 8.49332 18.6667 10.4883Z" stroke="white" stroke-width="1.5" stroke-linecap="round" stroke-linejoin="round"/>
<path d="M8.16663 14H12.8333M10.5 16.3333V11.6666M25.6666 5.96165V19.215C25.6666 20.9066 24.4533 21.6183 22.9716 20.8016L18.6666 18.3983V10.4883C18.6666 8.49331 17.0333 6.85998 15.0383 6.85998H9.33329V5.96165C9.33329 3.96665 10.9666 2.33331 12.9616 2.33331H22.0383C24.0333 2.33331 25.6666 3.96665 25.6666 5.96165Z" stroke="white" stroke-width="1.5" stroke-linecap="round" stroke-linejoin="round"/>
</svg>
