<svg width="28" height="28" viewBox="0 0 28 28" fill="none" xmlns="http://www.w3.org/2000/svg">
<path d="M14 17.5C14.9283 17.5 15.8185 17.1313 16.4749 16.4749C17.1313 15.8185 17.5 14.9283 17.5 14C17.5 13.0717 17.1313 12.1815 16.4749 11.5251C15.8185 10.8687 14.9283 10.5 14 10.5C13.0717 10.5 12.1815 10.8687 11.5251 11.5251C10.8687 12.1815 10.5 13.0717 10.5 14C10.5 14.9283 10.8687 15.8185 11.5251 16.4749C12.1815 17.1313 13.0717 17.5 14 17.5Z" stroke="white" stroke-width="1.5" stroke-miterlimit="10" stroke-linecap="round" stroke-linejoin="round"/>
<path d="M2.33333 15.0266V12.9733C2.33333 11.76 3.325 10.7566 4.54999 10.7566C6.66166 10.7566 7.52499 9.2633 6.46333 7.43163C5.85666 6.38163 6.21833 5.01663 7.27999 4.40997L9.29833 3.25497C10.22 2.70663 11.41 3.0333 11.9583 3.95497L12.0867 4.17663C13.1367 6.0083 14.8633 6.0083 15.925 4.17663L16.0533 3.95497C16.6017 3.0333 17.7917 2.70663 18.7133 3.25497L20.7317 4.40997C21.7933 5.01663 22.155 6.38163 21.5483 7.43163C20.4867 9.2633 21.35 10.7566 23.4617 10.7566C24.675 10.7566 25.6783 11.7483 25.6783 12.9733V15.0266C25.6783 16.24 24.6867 17.2433 23.4617 17.2433C21.35 17.2433 20.4867 18.7366 21.5483 20.5683C22.155 21.63 21.7933 22.9833 20.7317 23.59L18.7133 24.745C17.7917 25.2933 16.6017 24.9666 16.0533 24.045L15.925 23.8233C14.875 21.9916 13.1483 21.9916 12.0867 23.8233L11.9583 24.045C11.41 24.9666 10.22 25.2933 9.29833 24.745L7.27999 23.59C6.77144 23.2972 6.39984 22.8145 6.24673 22.248C6.09362 21.6815 6.17152 21.0774 6.46333 20.5683C7.52499 18.7366 6.66166 17.2433 4.54999 17.2433C3.325 17.2433 2.33333 16.24 2.33333 15.0266Z" stroke="white" stroke-width="1.5" stroke-miterlimit="10" stroke-linecap="round" stroke-linejoin="round"/>
</svg>
