<svg width="24" height="25" viewBox="0 0 24 25" fill="none" xmlns="http://www.w3.org/2000/svg">
<path d="M11.9999 8.25V13.5M21.0799 9.08V15.92C21.0799 17.04 20.4799 18.08 19.5099 18.65L13.5699 22.08C12.5999 22.64 11.3999 22.64 10.4199 22.08L4.47992 18.65C4.00169 18.3727 3.60485 17.9745 3.32927 17.4953C3.05368 17.0161 2.90905 16.4728 2.90992 15.92V9.08C2.90992 7.96 3.50992 6.92 4.47992 6.35L10.4199 2.92C11.3899 2.36 12.5899 2.36 13.5699 2.92L19.5099 6.35C20.4799 6.92 21.0799 7.95 21.0799 9.08Z" stroke="white" stroke-width="1.5" stroke-linecap="round" stroke-linejoin="round"/>
<path d="M12 16.7V16.8" stroke="white" stroke-width="2" stroke-linecap="round" stroke-linejoin="round"/>
</svg>
